<svg enable-background="new 0 0 800 800" viewBox="0 0 800 800" xmlns="http://www.w3.org/2000/svg"><g fill="#131d23"><path d="m98.9 526.5c-12.7-2.4-24.4-6.4-35.3-12v-52.3c10.2 8.1 21.8 14.4 34.8 18.8s25.7 6.6 38.2 6.6c21.3 0 31.9-8 31.9-24.1 0-7-3.4-12.5-10.2-16.5s-17.8-8.4-32.9-13.4c-7-2.3-11.3-3.7-12.9-4.4-16.3-5.4-29.1-12.8-38.5-22.1s-14.1-23.1-14.1-41.4c0-12.9 3.2-24.8 9.5-35.8s16.1-19.7 29.2-26.3 29.3-9.9 48.6-9.9c13.4 0 24.8 1.2 34.5 3.6 9.6 2.4 19.9 6.2 30.7 11.4v52.6c-9.5-7.2-19.7-13.2-30.6-18s-21.8-7.1-32.9-7.1c-10 0-17.9 2-23.9 5.9-6 4-9 9.7-9 17.1 0 5.9 1.8 10.7 5.4 14.4s8.1 6.6 13.4 8.7c5.3 2 13.9 4.9 25.6 8.5 14 4.1 25.6 8.6 34.6 13.6 9.1 5 16.3 11.7 21.7 20 5.4 8.4 8.1 19.1 8.1 32.2 0 13.8-3.2 26.3-9.5 37.3-6.3 11.1-15.7 19.9-28 26.3s-26.9 9.7-43.6 9.7c-17.2.1-32.1-1-44.8-3.4z"/><path d="m282.9 501.5c-19.2-19-28.9-48.8-28.9-89.3 0-40.1 9.7-69.8 29.2-89.3s46.5-29.2 81.1-29.2c27.4 0 54.3 5.5 80.8 16.6v49.9c-15.4-8.1-28.7-14.1-39.9-18s-22.6-5.8-34.1-5.8c-20.6 0-35.9 5.7-46 17.1s-15.1 30.8-15.1 58.2c0 26.9 5.1 46.2 15.3 57.9s24.7 17.5 43.5 17.5c13.4 0 23.8-1.8 31.2-5.4v-40.1h-37.3v-42.6h92.3v106.6c-29.4 16.3-59.6 24.4-90.6 24.4-35.1 0-62.3-9.5-81.5-28.5z"/><path d="m658 407v.2 4.7c0 26-4.5 44.7-13.6 56-9 11.3-22.5 17-40.4 17s-31.3-5.6-40.2-16.8-13.4-29.7-13.4-55.5c0-26.2 4.5-45 13.4-56.4 8.6-10.9 21.3-16.5 38.2-16.9v-44.8c-34.3.4-60.8 10.4-79.6 30-19.1 20-28.7 49.3-28.7 87.8 0 39.2 9.7 68.6 29.2 88.3s46.5 29.5 81.1 29.5c35.5 0 62.9-10.1 82-30.2s28.7-49.5 28.7-87.9c0-1.6 0-3.3-.1-4.9z"/></g><path d="m707 302.2c-20.7-20.7-49.4-31.1-86.1-31.1-.6 0-1.2 0-1.8 0-.1 0-.2 0-.4 0v47.5h.4 1.8c19.2 0 33.5 5.9 43 17.8 8.9 11.1 13.6 29.1 14.1 54h60c-.8-38.9-11.2-68.3-31-88.2z" fill="#3f51b6"/></svg>