<?xml version="1.0" encoding="UTF-8" standalone="no"?>
<!DOCTYPE svg PUBLIC "-//W3C//DTD SVG 1.1//EN" "http://www.w3.org/Graphics/SVG/1.1/DTD/svg11.dtd">
<svg version="1.1" xmlns="http://www.w3.org/2000/svg" xmlns:xlink="http://www.w3.org/1999/xlink" preserveAspectRatio="xMidYMid meet" viewBox="46.92000000000002 215.88 546.4799999999999 211.20000000000005" width="542.48" height="207.2"><defs><path d="M50.88 411.6C50.88 407.42 50.88 373.94 50.88 369.76C59.04 376.24 68.32 381.28 78.72 384.8C89.12 388.32 99.28 390.08 109.28 390.08C126.32 390.08 134.8 383.68 134.8 370.8C134.8 365.2 132.08 360.8 126.64 357.6C121.2 354.4 112.4 350.88 100.32 346.88C94.72 345.04 91.28 343.92 90 343.36C76.96 339.04 66.72 333.12 59.2 325.68C51.68 318.24 47.92 307.2 47.92 292.56C47.92 282.24 50.48 272.72 55.52 263.92C60.56 255.12 68.4 248.16 78.88 242.88C89.36 237.6 102.32 234.96 117.76 234.96C128.48 234.96 137.6 235.92 145.36 237.84C153.04 239.76 161.28 242.8 169.92 246.96C169.92 251.17 169.92 284.83 169.92 289.04C162.32 283.28 154.16 278.48 145.44 274.64C136.72 270.8 128 268.96 119.12 268.96C111.12 268.96 104.8 270.56 100 273.68C95.2 276.88 92.8 281.44 92.8 287.36C92.8 292.08 94.24 295.92 97.12 298.88C100 301.84 103.6 304.16 107.84 305.84C112.08 307.44 118.96 309.76 128.32 312.64C139.52 315.92 148.8 319.52 156 323.52C163.28 327.52 169.04 332.88 173.36 339.52C177.68 346.24 179.84 354.8 179.84 365.28C179.84 376.32 177.28 386.32 172.24 395.12C167.2 404 159.68 411.04 149.84 416.16C140 421.28 128.32 423.92 114.96 423.92C101.2 424 89.28 423.12 79.12 421.2C68.96 419.28 59.6 416.08 50.88 411.6Z" id="h1DOdy3nOt"></path><path d="M203.2 329.76C203.2 297.68 210.96 273.92 226.56 258.32C242.16 242.72 263.76 234.96 291.44 234.96C313.36 234.96 334.88 239.36 356.08 248.24C356.08 252.23 356.08 284.17 356.08 288.16C343.76 281.68 333.12 276.88 324.16 273.76C315.2 270.64 306.08 269.12 296.88 269.12C280.4 269.12 268.16 273.68 260.08 282.8C252 291.92 248 307.44 248 329.36C248 350.88 252.08 366.32 260.24 375.68C268.4 385.04 280 389.68 295.04 389.68C305.76 389.68 314.08 388.24 320 385.36C320 383.22 320 372.53 320 353.28L290.16 353.28L290.16 319.2L364 319.2C364 370.37 364 398.79 364 404.48C340.48 417.52 316.32 424 291.52 424C263.44 424 241.68 416.4 226.32 401.2C210.96 386 203.2 362.16 203.2 329.76Z" id="a1eBHKMpS"></path><path d="M526.4 325.6L526.4 325.76C526.4 328.02 526.4 329.27 526.4 329.52C526.4 350.32 522.8 365.28 515.52 374.32C508.32 383.36 497.52 387.92 483.2 387.92C468.88 387.92 458.16 383.44 451.04 374.48C443.92 365.52 440.32 350.72 440.32 330.08C440.32 309.12 443.92 294.08 451.04 284.96C457.92 276.24 468.08 271.76 481.6 271.44C481.6 267.86 481.6 239.18 481.6 235.6C454.16 235.92 432.96 243.92 417.92 259.6C402.64 275.6 394.96 299.04 394.96 329.84C394.96 361.2 402.72 384.72 418.32 400.48C433.92 416.24 455.52 424.08 483.2 424.08C511.6 424.08 533.52 416 548.8 399.92C564.08 383.84 571.76 360.32 571.76 329.6C571.76 328.32 571.76 326.96 571.68 325.68C565.64 325.67 550.55 325.64 526.4 325.6Z" id="b4kRVeGP3t"></path><path d="M496.72 216.88C496.24 216.88 495.76 216.88 495.28 216.88C495.2 216.88 495.12 216.88 494.96 216.88C494.96 219.41 494.96 232.08 494.96 254.88L495.28 254.88C496.14 254.88 496.62 254.88 496.72 254.88C512.08 254.88 523.52 259.6 531.12 269.12C538.24 278 542 292.4 542.4 312.32C547.2 312.32 585.6 312.32 590.4 312.32C589.76 281.2 581.44 257.68 565.6 241.76C549.04 225.2 526.08 216.88 496.72 216.88Z" id="ap8cy4lmy"></path></defs><g><g><use xlink:href="#h1DOdy3nOt" opacity="1" fill="#131d23" fill-opacity="1"></use><g><use xlink:href="#h1DOdy3nOt" opacity="1" fill-opacity="0" stroke="#000000" stroke-width="1" stroke-opacity="0"></use></g></g><g><use xlink:href="#a1eBHKMpS" opacity="1" fill="#131d23" fill-opacity="1"></use><g><use xlink:href="#a1eBHKMpS" opacity="1" fill-opacity="0" stroke="#000000" stroke-width="1" stroke-opacity="0"></use></g></g><g><use xlink:href="#b4kRVeGP3t" opacity="1" fill="#131d23" fill-opacity="1"></use><g><use xlink:href="#b4kRVeGP3t" opacity="1" fill-opacity="0" stroke="#000000" stroke-width="1" stroke-opacity="0"></use></g></g><g><use xlink:href="#ap8cy4lmy" opacity="1" fill="#3f51b6" fill-opacity="1"></use><g><use xlink:href="#ap8cy4lmy" opacity="1" fill-opacity="0" stroke="#000000" stroke-width="1" stroke-opacity="0"></use></g></g></g></svg>